<svg xmlns="http://www.w3.org/2000/svg" fill="none" viewBox="0 0 20 20">
  <path fill="currentColor" d="M14.7917 5.83331c0-.16576-.0659-.32473-.1831-.44194-.1172-.11721-.2762-.18306-.4419-.18306-.1658 0-.3248.06585-.442.18306-.1172.11721-.183.27618-.183.44194v1.66667c0 .16576.0658.32473.183.44194.1172.11721.2762.18306.442.18306.1657 0 .3247-.06585.4419-.18306.1172-.11721.1831-.27618.1831-.44194V5.83331Zm0 5.83329c0-.1657-.0659-.3247-.1831-.4419-.1172-.1172-.2762-.1831-.4419-.1831-.1658 0-.3248.0659-.442.1831-.1172.1172-.183.2762-.183.4419v1.6667c0 .1658.0658.3247.183.442.1172.1172.2762.183.442.183.1657 0 .3247-.0658.4419-.183.1172-.1173.1831-.2762.1831-.442v-1.6667Z"/>
  <path fill="currentColor" fill-rule="evenodd" d="M10.0467 1.04169h-.09336c-1.53166 0-2.745 0-3.69416.1275-.97667.13166-1.7675.40833-2.39167 1.03166-.62333.62417-.9 1.415-1.03167 2.39167-.1275.95-.1275 2.1625-.1275 3.69417V10.88c0 1.5317 0 2.745.1275 3.6942.13167.9767.40834 1.7675 1.03167 2.3917.38333.3825.82833.6341 1.34083.8025v.565c0 .345.28.625.625.625h.83334c.16576 0 .32473-.0659.44194-.1831.11721-.1172.18306-.2762.18306-.4419v-.2467c.75583.0383 1.6375.0383 2.66166.0383h.09336c1.025 0 1.9058 0 2.6616-.0383v.2467c0 .345.28.625.625.625h.8334c.1657 0 .3247-.0659.4419-.1831.1172-.1172.1831-.2762.1831-.4419v-.565c.5125-.1684.9583-.42 1.3408-.8025.6233-.6242.9-1.415 1.0317-2.3917.1275-.95.1275-2.1625.1275-3.6942V8.28752c0-1.53167 0-2.745-.1275-3.69417-.1317-.97666-.4084-1.7675-1.0317-2.39166-.6242-.62334-1.415-.9-2.3917-1.03167-.95-.1275-2.1625-.1275-3.6941-.1275m-5.29502 2.0425c.3525-.3525.83583-.56417 1.67416-.67667.85667-.115 1.985-.11666 3.57416-.11666 1.5892 0 2.7183.00166 3.575.11666.8375.1125 1.3208.32417 1.6733.67667.3525.3525.5642.83583.6767 1.67417.115.85666.1167 1.985.1167 3.57416v.625H3.95834v-.625c0-1.58916.00167-2.7175.11667-3.575.1125-.8375.32417-1.32083.67667-1.67333Zm-.79334 7.12338H16.0417v.625c0 1.5891-.0017 2.7183-.1167 3.575-.1125.8375-.3242 1.3208-.6767 1.6733-.3525.3525-.8358.5642-1.6741.6767-.8567.115-1.985.1166-3.5742.1166-1.58916 0-2.71749-.0016-3.57499-.1166-.8375-.1125-1.32083-.3242-1.67333-.6767-.3525-.3525-.56417-.8358-.67667-1.6742-.115-.8558-.11667-1.985-.11667-3.5741v-.625Z" clip-rule="evenodd"/>
</svg>
