<svg xmlns="http://www.w3.org/2000/svg" fill="none" viewBox="0 0 20 20">
  <g fill="currentColor" clip-path="url(#a)">
    <path d="M3.75 3.125c0-.16576.06585-.32473.18306-.44194C4.05027 2.56585 4.20924 2.5 4.375 2.5h6.25c.1658 0 .3247.06585.4419.18306.1173.11721.1831.27618.1831.44194v6.25c0 .16576-.0658.32473-.1831.44194-.1172.11721-.2761.18306-.4419.18306h-6.25c-.16576 0-.32473-.06585-.44194-.18306C3.81585 9.69973 3.75 9.54076 3.75 9.375v-6.25Z"/>
    <path d="M1.25 2.5c0-.66304.26339-1.29893.73223-1.767767C2.45107.263392 3.08696 0 3.75 0h7.5c.663 0 1.2989.263392 1.7678.732233.4688.468837.7322 1.104727.7322 1.767767v10c.663 0 1.2989.2634 1.7678.7322.4688.4689.7322 1.1048.7322 1.7678v.625c0 .1658.0658.3247.1831.4419.1172.1173.2761.1831.4419.1831s.3247-.0658.4419-.1831c.1173-.1172.1831-.2761.1831-.4419V10h-.625c-.1658 0-.3247-.06585-.4419-.18306-.1173-.11721-.1831-.27618-.1831-.44194V5.46875c0-.16576.0658-.32473.1831-.44194.1172-.11721.2761-.18306.4419-.18306h1.8687c-.0137-.595-.0662-1.1175-.2512-1.5275-.099-.2384-.2716-.43896-.4925-.5725-.23-.1375-.58-.24375-1.125-.24375-.1658 0-.3247-.06585-.4419-.18306-.1173-.11721-.1831-.27618-.1831-.44194 0-.16576.0658-.32473.1831-.44194.1172-.11721.2761-.18306.4419-.18306.705-.00167 1.2933.13833 1.765.42.4787.285.7925.68875.9925 1.13375C20.0013 3.6225 20 4.635 20 5.405v3.96875c.0002.08218-.0159.16359-.0472.23956-.0314.07597-.0774.14502-.1354.20319-.0581.05817-.127.10432-.2029.13581-.0759.03148-.1573.04769-.2395.04769h-.625v5.625c0 .4973-.1975.9742-.5492 1.3258-.3516.3517-.8285.5492-1.3258.5492-.4973 0-.9742-.1975-1.3258-.5492-.3517-.3516-.5492-.8285-.5492-1.3258V15c0-.3315-.1317-.6495-.3661-.8839-.2344-.2344-.5524-.3661-.8839-.3661v5h.625c.1658 0 .3247.0658.4419.1831.1173.1172.1831.2761.1831.4419s-.0658.3247-.1831.4419c-.1172.1173-.2761.1831-.4419.1831H.625c-.16576 0-.324731-.0658-.441942-.1831C.065848 19.6997 0 19.5408 0 19.375s.065848-.3247.183058-.4419C.300269 18.8158.45924 18.75.625 18.75h.625V2.5Zm11.25 0c0-.33152-.1317-.64946-.3661-.88388-.2344-.23442-.5524-.36612-.8839-.36612h-7.5c-.33152 0-.64946.1317-.88388.36612C2.6317 1.85054 2.5 2.16848 2.5 2.5v16.25h10V2.5Z"/>
  </g>
  <defs>
    <clipPath id="a">
      <path fill="#fff" d="M0 0h20v20H0z"/>
    </clipPath>
  </defs>
</svg>
