<svg xmlns="http://www.w3.org/2000/svg" fill="none" viewBox="0 0 32 32">
  <path stroke="currentColor" stroke-linecap="round" stroke-linejoin="round" stroke-width="2.4" d="M8 25.3334h5.3333M24 25.3454v-.012M2.66667 8.00002c0-4.41333.92-5.33333 5.33333-5.33333h16c4.4133 0 5.3333.92 5.3333 5.33333V24c0 4.4134-.92 5.3334-5.3333 5.3334H8c-4.41333 0-5.33333-.92-5.33333-5.3334V8.00002Z"/>
  <path stroke="currentColor" stroke-linecap="round" stroke-linejoin="round" stroke-width="2.4" d="M16 18.6667c2.9455 0 5.3333-2.3878 5.3333-5.3334C21.3333 10.3878 18.9455 8 16 8c-2.9455 0-5.3333 2.3878-5.3333 5.3333 0 2.9456 2.3878 5.3334 5.3333 5.3334Zm4.6667-5.3333h2M16 18v2m-4.6667-6.6666H9.33333M16 8.66669v-2"/>
</svg>
