<svg xmlns="http://www.w3.org/2000/svg" fill="none" viewBox="0 0 20 20">
  <g clip-path="url(#a)">
    <path fill="currentColor" fill-rule="evenodd" d="M19.7712.141029c.0716.05867.1293.132498.1688.216156.0396.083657.0601.175055.06.267594V18.1248c-.0001.1444-.0502.2844-.1418.396-.0916.1117-.2191.1882-.3607.2165l-6.25 1.25c-.0809.0161-.1641.0161-.245 0l-6.1275-1.225-6.1275 1.225c-.090639.0181-.184168.0159-.273849-.0065-.089681-.0224-.173281-.0644-.244777-.123-.071496-.0585-.1291073-.1323-.1686843-.2158C.0206127 19.5585.00005582 19.4672 0 19.3748V1.87478c.00008723-.14443.0501951-.28438.141804-.39604.091609-.11166.219065-.18815.360696-.21646l6.25-1.2500011c.08087-.01616344.16413-.01616344.245 0L13.125 1.23728 19.2525.0122789c.0906-.01823025.1841-.01613835.2738.006125.0897.0222633.1734.0641439.2449.1226251ZM12.5 2.38728l-5-1V17.6123l5 1V2.38728Zm1.25 16.22502 5-1V1.38728l-5 1V18.6123Zm-7.5-1V1.38728l-5 1V18.6123l5-1Z" clip-rule="evenodd"/>
  </g>
  <defs>
    <clipPath id="a">
      <path fill="#fff" d="M0 0h20v20H0z"/>
    </clipPath>
  </defs>
</svg>
