<svg xmlns="http://www.w3.org/2000/svg" fill="none" viewBox="0 0 32 32">
  <path stroke="currentColor" stroke-linecap="round" stroke-linejoin="round" stroke-width="2" d="M26.6667 5.33331H5.33333c-1.47276 0-2.66667 1.19391-2.66667 2.66667V22.6666c0 1.4728 1.19391 2.6667 2.66667 2.6667H26.6667c1.4727 0 2.6666-1.1939 2.6666-2.6667V7.99998c0-1.47276-1.1939-2.66667-2.6666-2.66667Z"/>
  <path stroke="currentColor" stroke-linecap="round" stroke-linejoin="round" stroke-width="2" d="M17.3333 10.6666H9.33333C8.59695 10.6666 8 11.2636 8 12v6.6666C8 19.403 8.59695 20 9.33333 20h7.99997c.7364 0 1.3334-.597 1.3334-1.3334V12c0-.7364-.597-1.3334-1.3334-1.3334Zm6.6667 0V20M8 25.3333V28m16-2.6667V28"/>
</svg>
