<svg xmlns="http://www.w3.org/2000/svg" fill="none" viewBox="0 0 20 20">
  <g clip-path="url(#a)">
    <path fill="currentColor" d="M8.75 3.125c0-.16576.06585-.32473.18306-.44194C9.05027 2.56585 9.20924 2.5 9.375 2.5h8.75c.1658 0 .3247.06585.4419.18306.1173.11721.1831.27618.1831.44194v1.25c0 .16576-.0658.32473-.1831.44194C18.4497 4.93415 18.2908 5 18.125 5h-8.75c-.16576 0-.32473-.06585-.44194-.18306C8.81585 4.69973 8.75 4.54076 8.75 4.375v-1.25ZM6e-8 15c0-.9946.39508794-1.9484 1.09834994-2.6517C1.80161 11.6451 2.75544 11.25 3.75 11.25c.99456 0 1.94839.3951 2.65165 1.0983C7.10491 13.0516 7.5 14.0054 7.5 15c0 .9946-.39509 1.9484-1.09835 2.6517C5.69839 18.3549 4.74456 18.75 3.75 18.75c-.99456 0-1.94839-.3951-2.65165-1.0983C.395088 16.9484 6e-8 15.9946 6e-8 15ZM8.75 13.125c0-.1658.06585-.3247.18306-.4419.11721-.1173.27618-.1831.44194-.1831h8.75c.1658 0 .3247.0658.4419.1831.1173.1172.1831.2761.1831.4419v1.25c0 .1658-.0658.3247-.1831.4419-.1172.1173-.2761.1831-.4419.1831h-8.75c-.16576 0-.32473-.0658-.44194-.1831-.11721-.1172-.18306-.2761-.18306-.4419v-1.25Zm0-6.25c0-.16576.06585-.32473.18306-.44194.11721-.11721.27618-.18306.44194-.18306h6.25c.1658 0 .3247.06585.4419.18306.1173.11721.1831.27618.1831.44194 0 .16576-.0658.32473-.1831.44194-.1172.11721-.2761.18306-.4419.18306h-6.25c-.16576 0-.32473-.06585-.44194-.18306C8.81585 7.19973 8.75 7.04076 8.75 6.875Zm0 10c0-.1658.06585-.3247.18306-.4419.11721-.1173.27618-.1831.44194-.1831h6.25c.1658 0 .3247.0658.4419.1831.1173.1172.1831.2761.1831.4419s-.0658.3247-.1831.4419c-.1172.1173-.2761.1831-.4419.1831h-6.25c-.16576 0-.32473-.0658-.44194-.1831-.11721-.1172-.18306-.2761-.18306-.4419Zm-5-15.625c-.49246 0-.98009.097-1.43506.28545-.45497.18846-.86837.46468-1.21659.8129-.34822.34822-.624443.76162-.812898 1.21659C.0969966 4.01991 0 4.50754 0 5s.0969966.98009.285452 1.43506c.188455.45497.464678.86837.812898 1.21659.34822.34822.76162.62444 1.21659.8129.45497.18845.9426.28545 1.43506.28545.99456 0 1.94839-.39509 2.65165-1.09835S7.5 5.99456 7.5 5c0-.99456-.39509-1.94839-1.09835-2.65165S4.74456 1.25 3.75 1.25Zm0 5.625c-.49728 0-.97419-.19754-1.32583-.54917C2.07254 5.97419 1.875 5.49728 1.875 5c0-.49728.19754-.97419.54917-1.32583.35164-.35163.82855-.54917 1.32583-.54917.49728 0 .97419.19754 1.32583.54917.35163.35164.54917.82855.54917 1.32583 0 .49728-.19754.97419-.54917 1.32583-.35164.35163-.82855.54917-1.32583.54917Z"/>
  </g>
  <defs>
    <clipPath id="a">
      <path fill="#fff" d="M0 0h20v20H0z"/>
    </clipPath>
  </defs>
</svg>
