<svg xmlns="http://www.w3.org/2000/svg" fill="none" viewBox="0 0 32 32">
  <path fill="currentColor" d="M8 29.5c0 .2967-.08797.5867-.2528.8334-.16482.2466-.39909.4389-.67317.5524-.27409.1135-.57569.1433-.86666.0854-.29098-.0579-.55825-.2008-.76803-.4105-.20978-.2098-.35264-.4771-.41052-.7681-.05788-.2909-.02817-.5925.08536-.8666s.30579-.5084.55247-.6732C5.91332 28.088 6.20333 28 6.5 28c.39783 0 .77936.158 1.06066.4393C7.84197 28.7206 8 29.1022 8 29.5Zm2.5-5.5c-.2967 0-.58668.088-.83335.2528-.24668.1648-.43894.3991-.55247.6732-.11353.2741-.14324.5757-.08536.8666.05788.291.20074.5583.41052.7681.20978.2097.47705.3526.76806.4105.2909.0579.5925.0281.8666-.0854s.5084-.3058.6732-.5524c.1648-.2467.2528-.5367.2528-.8334 0-.3978-.158-.7794-.4393-1.0607S10.8978 24 10.5 24Zm-8 0c-.29667 0-.58668.088-.83335.2528-.24668.1648-.43894.3991-.55247.6732-.11353.2741-.143235.5757-.08536.8666.05788.291.20074.5583.41052.7681.20978.2097.47705.3526.76803.4105.29097.0579.59257.0281.86666-.0854.27408-.1135.50835-.3058.67318-.5524C3.91203 26.0867 4 25.7967 4 25.5c0-.3978-.15803-.7794-.43934-1.0607C3.27936 24.158 2.89783 24 2.5 24Zm4-4c-.29667 0-.58668.088-.83335.2528-.24668.1648-.43894.3991-.55247.6732-.11353.2741-.14324.5757-.08536.8666.05788.291.20074.5583.41052.7681.20978.2097.47705.3526.76803.4105.29097.0579.59257.0281.86666-.0854.27408-.1135.50835-.3058.67317-.5524C7.91203 22.0867 8 21.7967 8 21.5c0-.3978-.15803-.7794-.43934-1.0607C7.27936 20.158 6.89783 20 6.5 20ZM32 5c0 .26522-.1054.51957-.2929.70711C31.5196 5.89464 31.2652 6 31 6h-3.5863l-3.4812 3.4825-2.7075 15.8487c-.0609.3621-.2204.7005-.4608.9779-.2405.2775-.5527.4834-.9025.5952-.3497.1118-.7235.1252-1.0803.0387-.3569-.0866-.683-.2697-.9426-.5293l-12.25005-12.25c-.26-.2598-.44334-.5863-.52988-.9436-.08654-.3573-.07294-.7315.0393-1.0816.11225-.35.31881-.6624.59698-.9027.27818-.2403.61721-.3993.97985-.4595l15.8425-2.7088 3.775-3.775c.0929-.09283.2033-.16645.3246-.21664.1214-.05018.2515-.07596.3829-.07586h4c.2652 0 .5196.10536.7071.29289C31.8946 4.48043 32 4.73478 32 5Zm-10.2237 5.2238L7 12.75 19.25 25l2.5263-14.7762Z"/>
</svg>
