<svg xmlns="http://www.w3.org/2000/svg" fill="none" viewBox="0 0 32 32">
  <path stroke="currentColor" stroke-miterlimit="10" stroke-width="2" d="M25 20c0 5.5231-3.4769 9-9 9-5.5231 0-9-3.4769-9-9 0-5.9269 6.4519-13.92813 8.4306-16.24251.0704-.08223.1578-.14824.2561-.1935.0984-.04525.2054-.06869.3136-.06869.1083 0 .2152.02344.3136.06869.0983.04526.1857.11127.2561.1935C18.5481 6.07187 25 14.0731 25 20Z"/>
  <path stroke="currentColor" stroke-linecap="round" stroke-linejoin="round" stroke-width="2" d="M21.5 20.5c0 1.1935-.4741 2.3381-1.318 3.182C19.3381 24.5259 18.1935 25 17 25"/>
</svg>
